inDegrees=yes
name=ik_lifting_orientations
DataType=double
version=3
OpenSimVersion=4.5-2024-01-10-34fd6af
endheader
time	pelvis_tilt	pelvis_list	pelvis_rotation	pelvis_tx	pelvis_ty	pelvis_tz	hip_flexion_r	hip_adduction_r	hip_rotation_r	knee_angle_r	knee_angle_r_beta	ankle_angle_r	subtalar_angle_r	mtp_angle_r	hip_flexion_l	hip_adduction_l	hip_rotation_l	knee_angle_l	knee_angle_l_beta	ankle_angle_l	subtalar_angle_l	mtp_angle_l	lumbar_extension	lumbar_bending	lumbar_rotation	arm_flex_r	arm_add_r	arm_rot_r	elbow_flex_r	pro_sup_r	wrist_flex_r	wrist_dev_r	arm_flex_l	arm_add_l	arm_rot_l	elbow_flex_l	pro_sup_l	wrist_flex_l	wrist_dev_l
1.65	20.14208709632686	0.2561081968456058	-179.4249819373943	0	0.9399999998679526	0	30.79910315749608	-9.606309205499375	0	42.64741954366315	0.7443378885162996	-4.914918918275306	0	0	30.79910315749608	-9.606309205499375	0	42.64741954366315	0.7443378885162996	-4.914918918275306	0	0	-24.80380045338267	-0.8302833348515665	0.5768903026909366	60.75808794944124	66.9974328572418	32.28798120090195	0.007462032756129727	30.41157853045959	0	0	0	-6.373196146673195	0	59.56576492184863	30.41157853045959	0	0
1.66	21.09430891623889	0.0958105250701765	-179.5372741916256	0	0.9399999998679526	0	31.07489220027698	-9.630172623134344	0	42.93018790892185	0.7492731275105459	-4.921423408547475	0	0	31.07489220027698	-9.630172623134344	0	42.93018790892185	0.7492731275105459	-4.921423408547475	0	0	-23.62027136097254	-1.070896941448669	0.6302797696716715	56.62233160533227	68.81111345149986	36.55728030358307	0.007824087483025641	29.96278667149216	0	0	0	-6.457709757208765	0	60.01496962740259	29.96278667149216	0	0
1.67	21.53080710220573	0.01114263090035748	-179.5990808788596	0	0.9399999998679526	0	31.09862270159138	-9.632305876244459	0	42.95407759572635	0.7496900812025545	-4.922014679462928	0	0	31.09862270159138	-9.632305876244459	0	42.95407759572635	0.7496900812025545	-4.922014679462928	0	0	-23.15301313381707	-1.206659450416368	0.6624340272821101	53.28604813328698	69.89954882695459	40.03938383041952	0.008056731984229022	29.92427281555151	0	0	0	-6.464935804441839	0	60.05351907011295	29.92427281555151	0	0
1.68	21.97012212489965	-0.0633478531825885	-179.6478706883492	0	0.9399999998679526	0	31.37829157305472	-9.657755327586671	0	43.23785841308727	0.7546429908195033	-4.928959733423792	0	0	31.37829157305472	-9.657755327586671	0	43.23785841308727	0.7546429908195033	-4.928959733423792	0	0	-22.50193867354087	-1.320100995179319	0.6927204098971892	48.89997731733879	70.88254709589455	44.5673160702471	0.008356667126341094	29.47371283791218	0	0	0	-6.546737013005816	0	60.50450598228632	29.47371283791218	0	0
1.69	22.31265852545064	-0.1312099389927424	-179.690092418172	0	0.9399999998679526	0	31.68784909294394	-9.682087995511466	0	43.54966355567897	0.7600850171823789	-4.935317230282721	0	0	31.68784909294394	-9.682087995511466	0	43.54966355567897	0.7600850171823789	-4.935317230282721	0	0	-22.08450808427682	-1.448893219988127	0.72640469467072	41.98065878548579	72.31748510088609	51.97951666404313	0.008852509403283365	28.96831521031662	0	0	0	-6.643274952533865	0	61.01035876085958	28.96831521031662	0	0
1.7	22.72294111771657	-0.2838674764271203	-179.7859577578558	0	0.9399999998679526	0	31.72154047212788	-9.684817190841265	0	43.5837427351354	0.7606798110702716	-4.936041292918114	0	0	31.72154047212788	-9.684817190841265	0	43.5837427351354	0.7606798110702716	-4.936041292918114	0	0	-21.84487288882993	-1.659569715105299	0.7781109209480229	37.15416262017147	72.99704438867303	57.18722648899401	0.00917410541818893	28.91329112721657	0	0	0	-6.65380387037736	0	61.06543250912511	28.91329112721657	0	0
1.71	23.12388510391193	-0.4162041407291606	-179.8813172347673	0	0.9399999998679526	0	31.75285965501552	-9.687340364880495	0	43.61543147811458	0.7612328839710766	-4.93670907320678	0	0	31.75285965501552	-9.687340364880495	0	43.61543147811458	0.7612328839710766	-4.93670907320678	0	0	-21.5032674026289	-1.813554396421141	0.8201713823042434	31.75286293536473	73.51155939261007	62.86257734122948	0.009514622286706718	28.86212408569455	0	0	0	-6.663604405527622	0	61.11664568147049	28.86212408569455	0	0
1.72	23.15252706955937	-0.5160033661872535	-179.9534415583576	0	0.9399999998679526	0	31.90584863087284	-9.700326838974032	0	43.75343505846998	0.7636415008278189	-4.940085890759382	0	0	31.90584863087284	-9.700326838974032	0	43.75343505846998	0.7636415008278189	-4.940085890759382	0	0	-21.53587502705217	-1.922826639998607	0.846829483746974	24.31879404906834	74.07641414880382	70.74566263450932	0.01006765178811494	28.61925197167247	0	0	0	-6.706649225865267	0	61.35974641121446	28.61925197167247	0	0
1.73	23.30772322683298	-0.5635582243155761	-179.9849237099905	0	0.9399999998679526	0	31.90443543329357	-9.702125919139766	0	43.72818603297307	0.7632008221999778	-4.940628259366608	0	0	31.90443543329357	-9.702125919139766	0	43.72818603297307	0.7632008221999778	-4.940628259366608	0	0	-21.64084371131687	-1.958352865865869	0.8674824799083372	15.73358462571259	74.4561524818107	79.94332327319768	0.01070926140298995	28.63095006891253	0	0	0	-6.699994991226514	0	61.34805165878798	28.63095006891253	0	0
1.74	23.72628035668032	-0.7247607701698379	-180.0832309656393	0	0.9399999998679526	0	31.83809614136349	-9.699591016237516	0	43.63083193819266	0.761501672705761	-4.940088908844621	0	0	31.83809614136349	-9.699591016237516	0	43.63083193819266	0.761501672705761	-4.940088908844621	0	0	-21.37068668290961	-2.155527589837011	1.054490385280556	8.327048862174061	74.46710687125903	87.73801742313712	0.01151451463298385	28.75154457411701	0	0	0	-6.671272158988296	0	61.22736655677233	28.75154457411701	0	0
